  0
SECTION
  2
HEADER
  9
$ACADVER
  1
AC1009
  9
$EXTMIN
 10
0.0
 20
0.0
 30
0.0
  9
$EXTMAX
 10
1000.0
 20
1000.0
 30
0.0
  9
$FILLMODE
 70
 0
  9
$SPLFRAME
 70
 1
  0
ENDSEC
  0
SECTION
  2
TABLES
  0
TABLE
  2
LAYER
 70
1
  0
LAYER
  2
0
 70
     0
 62
     7
  6
CONTINUOUS
  0
ENDTAB
  0
ENDSEC
  0
SECTION
  2
ENTITIES
  0
POLYLINE
  8
0
 62
     0
 66
     1
 10
0
 20
0
 30
0.0
 70
     1
 40
0.791858
 41
0.791858
  0
VERTEX
  8
0
 10
6.54656
 20
4.33464
 30
0.0
 40
0.010998
 41
0.010998
  0
VERTEX
  8
0
 10
6.54194
 20
4.37907
 30
0.0
 40
0.010998
 41
0.010998
  0
VERTEX
  8
0
 10
6.52903
 20
4.42042
 30
0.0
 40
0.010998
 41
0.010998
  0
VERTEX
  8
0
 10
6.50863
 20
4.45785
 30
0.0
 40
0.010998
 41
0.010998
  0
VERTEX
  8
0
 10
6.48167
 20
4.49044
 30
0.0
 40
0.010998
 41
0.010998
  0
VERTEX
  8
0
 10
6.44906
 20
4.51731
 30
0.0
 40
0.010998
 41
0.010998
  0
VERTEX
  8
0
 10
6.41162
 20
4.5376
 30
0.0
 40
0.010998
 41
0.010998
  0
VERTEX
  8
0
 10
6.37022
 20
4.5504
 30
0.0
 40
0.010998
 41
0.010998
  0
VERTEX
  8
0
 10
6.32585
 20
4.55479
 30
0.0
 40
0.010998
 41
0.010998
  0
VERTEX
  8
0
 10
0.871528
 20
4.55479
 30
0.0
 40
0.010998
 41
0.010998
  0
VERTEX
  8
0
 10
0.785699
 20
4.53662
 30
0.0
 40
0.010998
 41
0.010998
  0
VERTEX
  8
0
 10
0.715711
 20
4.48292
 30
0.0
 40
0.010998
 41
0.010998
  0
VERTEX
  8
0
 10
0.668565
 20
4.39524
 30
0.0
 40
0.010998
 41
0.010998
  0
VERTEX
  8
0
 10
0.651421
 20
4.27501
 30
0.0
 40
0.010998
 41
0.010998
  0
VERTEX
  8
0
 10
0.643121
 20
4.20731
 30
0.0
 40
0.010998
 41
0.010998
  0
VERTEX
  8
0
 10
0.619521
 20
4.14139
 30
0.0
 40
0.010998
 41
0.010998
  0
VERTEX
  8
0
 10
0.582954
 20
4.07964
 30
0.0
 40
0.010998
 41
0.010998
  0
VERTEX
  8
0
 10
0.535644
 20
4.02414
 30
0.0
 40
0.010998
 41
0.010998
  0
VERTEX
  8
0
 10
0.479818
 20
3.97715
 30
0.0
 40
0.010998
 41
0.010998
  0
VERTEX
  8
0
 10
0.41786
 20
3.94092
 30
0.0
 40
0.010998
 41
0.010998
  0
VERTEX
  8
0
 10
0.351942
 20
3.91753
 30
0.0
 40
0.010998
 41
0.010998
  0
VERTEX
  8
0
 10
0.284451
 20
3.90924
 30
0.0
 40
0.010998
 41
0.010998
  0
VERTEX
  8
0
 10
0.164768
 20
3.89199
 30
0.0
 40
0.010998
 41
0.010998
  0
VERTEX
  8
0
 10
0.0774197
 20
3.84472
 30
0.0
 40
0.010998
 41
0.010998
  0
VERTEX
  8
0
 10
0.0238172
 20
3.77468
 30
0.0
 40
0.010998
 41
0.010998
  0
VERTEX
  8
0
 10
0.00564236
 20
3.68892
 30
0.0
 40
0.010998
 41
0.010998
  0
VERTEX
  8
0
 10
0.00564236
 20
1.5401
 30
0.0
 40
0.010998
 41
0.010998
  0
VERTEX
  8
0
 10
0.0240343
 20
1.45437
 30
0.0
 40
0.010998
 41
0.010998
  0
VERTEX
  8
0
 10
0.0791015
 20
1.38433
 30
0.0
 40
0.010998
 41
0.010998
  0
VERTEX
  8
0
 10
0.170464
 20
1.33713
 30
0.0
 40
0.010998
 41
0.010998
  0
VERTEX
  8
0
 10
0.297906
 20
1.31982
 30
0.0
 40
0.010998
 41
0.010998
  0
VERTEX
  8
0
 10
0.370389
 20
1.3106
 30
0.0
 40
0.010998
 41
0.010998
  0
VERTEX
  8
0
 10
0.440972
 20
1.28407
 30
0.0
 40
0.010998
 41
0.010998
  0
VERTEX
  8
0
 10
0.507269
 20
1.24202
 30
0.0
 40
0.010998
 41
0.010998
  0
VERTEX
  8
0
 10
0.566894
 20
1.18631
 30
0.0
 40
0.010998
 41
0.010998
  0
VERTEX
  8
0
 10
0.617404
 20
1.11882
 30
0.0
 40
0.010998
 41
0.010998
  0
VERTEX
  8
0
 10
0.656467
 20
1.04129
 30
0.0
 40
0.010998
 41
0.010998
  0
VERTEX
  8
0
 10
0.68164
 20
0.955621
 30
0.0
 40
0.010998
 41
0.010998
  0
VERTEX
  8
0
 10
0.690539
 20
0.863607
 30
0.0
 40
0.010998
 41
0.010998
  0
VERTEX
  8
0
 10
0.690375
 20
0.226128
 30
0.0
 40
0.010998
 41
0.010998
  0
VERTEX
  8
0
 10
0.693468
 20
0.185872
 30
0.0
 40
0.010998
 41
0.010998
  0
VERTEX
  8
0
 10
0.702746
 20
0.146267
 30
0.0
 40
0.010998
 41
0.010998
  0
VERTEX
  8
0
 10
0.718099
 20
0.108832
 30
0.0
 40
0.010998
 41
0.010998
  0
VERTEX
  8
0
 10
0.739367
 20
0.0749783
 30
0.0
 40
0.010998
 41
0.010998
  0
VERTEX
  8
0
 10
0.766439
 20
0.0462782
 30
0.0
 40
0.010998
 41
0.010998
  0
VERTEX
  8
0
 10
0.799208
 20
0.0240886
 30
0.0
 40
0.010998
 41
0.010998
  0
VERTEX
  8
0
 10
0.837511
 20
0.0100369
 30
0.0
 40
0.010998
 41
0.010998
  0
VERTEX
  8
0
 10
0.881347
 20
0.00542535
 30
0.0
 40
0.010998
 41
0.010998
  0
VERTEX
  8
0
 10
6.36594
 20
0.00542535
 30
0.0
 40
0.010998
 41
0.010998
  0
VERTEX
  8
0
 10
6.45167
 20
0.0239258
 30
0.0
 40
0.010998
 41
0.010998
  0
VERTEX
  8
0
 10
6.52169
 20
0.0778538
 30
0.0
 40
0.010998
 41
0.010998
  0
VERTEX
  8
0
 10
6.56885
 20
0.165907
 30
0.0
 40
0.010998
 41
0.010998
  0
VERTEX
  8
0
 10
6.58599
 20
0.286621
 30
0.0
 40
0.010998
 41
0.010998
  0
VERTEX
  8
0
 10
6.59413
 20
0.3546
 30
0.0
 40
0.010998
 41
0.010998
  0
VERTEX
  8
0
 10
6.6174
 20
0.42041
 30
0.0
 40
0.010998
 41
0.010998
  0
VERTEX
  8
0
 10
6.65364
 20
0.481879
 30
0.0
 40
0.010998
 41
0.010998
  0
VERTEX
  8
0
 10
6.70068
 20
0.536947
 30
0.0
 40
0.010998
 41
0.010998
  0
VERTEX
  8
0
 10
6.75635
 20
0.583496
 30
0.0
 40
0.010998
 41
0.010998
  0
VERTEX
  8
0
 10
6.81847
 20
0.619358
 30
0.0
 40
0.010998
 41
0.010998
  0
VERTEX
  8
0
 10
6.88488
 20
0.642415
 30
0.0
 40
0.010998
 41
0.010998
  0
VERTEX
  8
0
 10
6.9535
 20
0.650608
 30
0.0
 40
0.010998
 41
0.010998
  0
VERTEX
  8
0
 10
7.07438
 20
0.667969
 30
0.0
 40
0.010998
 41
0.010998
  0
VERTEX
  8
0
 10
7.16118
 20
0.715115
 30
0.0
 40
0.010998
 41
0.010998
  0
VERTEX
  8
0
 10
7.21354
 20
0.785101
 30
0.0
 40
0.010998
 41
0.010998
  0
VERTEX
  8
0
 10
7.23128
 20
0.870768
 30
0.0
 40
0.010998
 41
0.010998
  0
VERTEX
  8
0
 10
7.23128
 20
3.01958
 30
0.0
 40
0.010998
 41
0.010998
  0
VERTEX
  8
0
 10
7.21278
 20
3.10553
 30
0.0
 40
0.010998
 41
0.010998
  0
VERTEX
  8
0
 10
7.15821
 20
3.17583
 30
0.0
 40
0.010998
 41
0.010998
  0
VERTEX
  8
0
 10
7.06787
 20
3.22331
 30
0.0
 40
0.010998
 41
0.010998
  0
VERTEX
  8
0
 10
6.94222
 20
3.24072
 30
0.0
 40
0.010998
 41
0.010998
  0
VERTEX
  8
0
 10
6.87039
 20
3.25
 30
0.0
 40
0.010998
 41
0.010998
  0
VERTEX
  8
0
 10
6.79986
 20
3.27658
 30
0.0
 40
0.010998
 41
0.010998
  0
VERTEX
  8
0
 10
6.73318
 20
3.31868
 30
0.0
 40
0.010998
 41
0.010998
  0
VERTEX
  8
0
 10
6.6729
 20
3.3744
 30
0.0
 40
0.010998
 41
0.010998
  0
VERTEX
  8
0
 10
6.62158
 20
3.44194
 30
0.0
 40
0.010998
 41
0.010998
  0
VERTEX
  8
0
 10
6.58176
 20
3.51947
 30
0.0
 40
0.010998
 41
0.010998
  0
VERTEX
  8
0
 10
6.55599
 20
3.60519
 30
0.0
 40
0.010998
 41
0.010998
  0
VERTEX
  8
0
 10
6.54688
 20
3.69715
 30
0.0
 40
0.010998
 41
0.010998
  0
VERTEX
  8
0
 10
6.54656
 20
4.33464
 30
0.0
 40
0.010998
 41
0.010998
  0
SEQEND
 8
0
  0
ENDSEC
  0
EOF
